<svg version="1.1" xmlns="http://www.w3.org/2000/svg" xmlns:xlink="http://www.w3.org/1999/xlink" viewBox="0 0 200 43.8" xml:space="preserve">
	<path style="fill: #ED4C06;" d="M40.4,12.9c-0.9,0-1.7-0.3-2.4-1l-6.2-6.2c-1.3-1.3-1.3-3.4,0-4.7c1.3-1.3,3.4-1.3,4.7,0l6.2,6.2
		c1.3,1.3,1.3,3.4,0,4.7C42.1,12.6,41.3,12.9,40.4,12.9z M21.7,37.1c1.3-1.3,1.3-3.4,0-4.7L11.4,22.1c-1.3-1.3-3.4-1.3-4.7,0
		c-1.3,1.3-1.3,3.4,0,4.7l10.2,10.2c0.7,0.7,1.5,1,2.4,1S21,37.7,21.7,37.1z M42.8,27.4c1.3-1.3,1.3-3.4,0-4.7L21.1,1
		c-1.3-1.3-3.4-1.3-4.7,0c-1.3,1.3-1.3,3.4,0,4.7L38,27.4c0.7,0.7,1.5,1,2.4,1C41.3,28.4,42.1,28,42.8,27.4z M42.8,42.8
		c1.3-1.3,1.3-3.4,0-4.7L5.7,1C4.4-0.3,2.3-0.3,1,1c-1.3,1.3-1.3,3.4,0,4.7l37,37c0.7,0.7,1.5,1,2.4,1C41.3,43.8,42.1,43.4,42.8,42.8
		z"/>
	<path d="M74.5,38c-8.9,0-16.1-7.2-16.1-16.1c0-8.9,7.2-16.1,16.1-16.1S90.6,13,90.6,21.9S83.4,38,74.5,38z M74.5,12.5
		c-5.2,0-9.4,4.2-9.4,9.4c0,5.2,4.2,9.4,9.4,9.4s9.4-4.2,9.4-9.4C83.9,16.7,79.7,12.5,74.5,12.5z M163.4,36.8l0-29.3
		c0-0.7-0.6-1.2-1.2-1.2l-4.2,0c-0.7,0-1.2,0.6-1.2,1.2l0,29.3c0,0.7,0.6,1.2,1.2,1.2l4.2,0C162.8,38,163.4,37.5,163.4,36.8z
		 M149.9,6.2l-23.4,0c-0.7,0-1.2,0.6-1.2,1.2v4.2c0,0.7,0.6,1.2,1.2,1.2l8.3,0l0,23.9c0,0.7,0.6,1.2,1.2,1.2l4.2,0
		c0.7,0,1.2-0.6,1.2-1.2l0-23.9l8.3,0c0.7,0,1.2-0.6,1.2-1.2V7.4C151.2,6.7,150.6,6.2,149.9,6.2z M121.1,33.8c0.5-0.5,0.5-1.3,0-1.8
		l-3-2.8c-0.5-0.5-1.4-0.5-1.9-0.1c-1.7,1.4-3.7,2.1-5.9,2.1c-5.4,0-9.8-4.6-9.4-10.2c0.4-4.9,4.6-8.7,9.5-8.7c2.2,0,4.2,0.8,5.9,2.1
		c0.6,0.5,1.4,0.4,1.9-0.1l3-2.8c0.5-0.5,0.5-1.4,0-1.9c-2.9-2.6-6.8-4.1-10.8-4.1c-8.9,0-16.1,7.2-16.1,16.1
		c0,8.9,7.2,16.1,16.1,16.1C114.2,38,118.1,36.5,121.1,33.8z M193,6.9l-8.6,20.3l-8.6-20.3c-0.2-0.5-0.6-0.8-1.2-0.8l-4.6,0
		c-0.9,0-1.5,0.9-1.2,1.7l12.4,29.3c0.2,0.5,0.6,0.8,1.2,0.8l3.8,0c0.5,0,1-0.3,1.1-0.8l12.5-29.3c0.3-0.8-0.3-1.7-1.1-1.7l-4.6,0
		C193.7,6.2,193.2,6.5,193,6.9z"/>
</svg>
